<svg xmlns="http://www.w3.org/2000/svg" viewBox="0 0 64 64">
  <rect width="64" height="64" rx="12" fill="#0a0e17"/>
  <path d="M43 36.2L43.8 36.2L44.4 36.1L45.5 36L45.9 36.8L46.1 37.6L46.4 38.7L46.7 39.2L46.7 39.9L46.8 40.5L46.9 41.1L45.9 41.2L45.3 41.3L44.1 41.4L44.3 42L43.7 42.4L43.2 42L43.1 41.2L43 40.3L43 39.2L43.1 37.7L43.1 36.8ZM9.2 43.1L9.8 42.9L10.4 43.2L10.1 42.6L9.8 42.1L10.3 41.7L10.8 41.2L11.3 41L11.9 41L12.5 41.2L13.1 41.3L13.8 41.4L14.6 44.8L14.7 45.6L15.3 45.7L16 45.5L16.5 45.9L16.9 46.3L17.5 46.6L17.9 47.1L17.3 47L16.9 46.5L16.5 46.1L16 45.7L15.6 46.1L15.1 45.7L14.4 45.7L13.8 45.7L13.2 45.4L13 46L12.5 46.3L12.4 45.7L12 46.2L11.8 46.7L11.3 47.1L10.8 47.5L10.4 47.9L9.8 48L9.2 48.2L9.7 47.8L10.3 47.6L10.8 47.2L11 46.6L10.4 46.5L10 46L9.5 45.8L9.3 45.2L9.5 44.6L10.1 44.3L10.5 43.8L9.9 43.8L9.4 43.4ZM14.6 37.6L14.8 36.9L15.1 36.3L15.5 35.8L15.4 35.1L15.4 34.4L15.4 33.8L15.5 33.2L16.1 33.3L16.4 32.2L17.1 32.3L17.9 32.5L19 32.7L20 32.8L20.8 33L21.2 34.9L21 36.3L20.9 36.9L20.4 40.4L19.4 40.2L18.2 40L16.9 39.3L16.1 38.8L14.4 37.8ZM22.1 27.9L23 28L24.6 28.2L25.3 28.2L26.2 28.3L27 28.4L27.9 28.5L28.9 28.5L28.8 29.8L28.8 30.7L28.7 32.4L28.6 33.8L27.9 33.7L26.8 33.6L26.2 33.6L25.5 33.5L24.3 33.4L23.6 33.3L22.2 33.1L21.4 33L21.5 32.4L21.6 31.5L21.7 30.8L22 28.5L22.1 27.9ZM46.9 41.1L47.7 41.4L48.7 41.3L49.5 41.3L50.2 41.5L50.3 40.9L50.9 40.9L51.2 41.9L51.6 42.7L52.1 43.3L52.3 43.9L52.7 44.5L53 45.1L53.3 45.7L53.3 46.4L53.4 47L53.2 47.6L53 48.2L52.3 48L52.1 47.3L51.5 47.1L51.1 46.4L50.9 45.8L50.3 45.5L50.3 44.9L49.8 44.5L49.9 43.9L49.7 43.3L49.2 43L48.7 42.5L48.3 42.2L47.7 42.4L47.1 42.7L46.5 42.5L46 42.2L45.2 42.1L44.5 42.2L44.2 41.7L44.7 41.3L45.9 41.2L46.7 41.1ZM45.7 36L46.3 35.9L47 35.8L47.8 35.7L48.2 36.2L48.8 36.5L49.2 37L49.7 37.4L50.1 37.9L50.5 38.3L50.9 38.9L51.1 39.4L50.9 40.1L50.9 40.9L50.2 40.9L49.5 41.3L48.7 41.3L47.7 41.4L47.1 41.4L46.8 40.9L46.7 40.2L46.7 39.6L46.6 39L46.2 37.9L46 37.2L45.8 36.3ZM42.9 27.4L43.6 27.3L44.5 27.2L45.2 27.1L45.7 29L45.8 30L45.8 30.6L45.4 31.1L45.1 31.7L44.7 32.1L44.1 32.2L43.4 32.3L42.8 32.6L42.9 31.9L43.2 31.4L43.1 30.8L43.1 30.1L43.1 29.3L42.9 27.7ZM28.8 29.8L29.7 29.9L31 30L32 30L33.5 30L34.5 30L35.4 30L35.6 30.6L36 31.1L36.2 31.8L36.2 32.6L36.2 33.5L35.3 34L34.5 34L33.9 34L33.1 33.9L32.3 33.9L31.4 33.9L30.5 33.9L29.1 33.8L28.6 32.5L28.7 31L28.8 30.3ZM58.3 22.9L57.9 22.3L57.5 20.9L57.2 20.1L57.5 19.6L57.7 19L57.7 18.2L58.1 17L58.7 17.1L59.3 17.1L59.6 17.7L59.8 18.4L60.3 18.9L60.8 19.4L60.9 20L60.4 20.3L60 20.8L59.4 21.1L59.1 21.6L58.6 22L58.4 22.6ZM56.1 23.9L56.8 23.7L57.5 23.6L58.1 23.3L58.3 23.8L58.8 24.3L59.4 24.3L58.9 24.8L58.3 24.7L57.7 24.5L57 24.6L56.1 24.8L56.1 23.9ZM33.7 18.3L34.8 18.3L35.5 18.3L36 18.7L36.6 18.8L37.4 18.8L37.9 19.3L38.6 19.4L39.1 19.2L39.7 19.3L40.3 19.4L39.7 19.8L39.1 20.3L38.6 20.8L38.1 21.2L38.1 22L37.6 22.5L37.7 23.2L37.7 23.8L38.2 24.2L38.7 24.5L39.2 25L38.6 25.4L37.8 25.4L36.7 25.4L36.1 25.4L35 25.5L34.3 25.5L34.3 24.1L34.3 23.1L34.2 22.5L34.2 21.8L34 21.1L34 20.5L33.9 19.9L33.8 19.3L33.8 18.6ZM54.8 28.3L55.2 27.8L55.1 27.2L54.9 26.5L55.1 26L56 26.2L55.9 26.9L56.2 27.7L56.1 28.3L55.8 28.8L55.2 28.7ZM49.5 33.4L50.3 33.3L51.1 33.2L51.7 33.1L52.7 32.9L53.9 32.7L54.9 32.5L55.5 32.7L55.9 33.3L55.5 32.7L55 33L55.4 33.5L55.1 34L54.9 34.6L55.6 34.3L55.3 34.8L54.7 35L54.2 35.4L54 36.1L53.4 36.3L52.4 35.7L51.9 35.4L50.7 35.5L50.2 35.2L49.1 35.3L48.3 35.7L47 35.8L47.3 35.3L47.8 35L48.4 34.5L48.9 34.1L49.4 33.7ZM27.8 18L29.4 18.2L30.1 18.2L30.9 18.3L31.9 18.3L33.1 18.3L33.7 18.3L33.8 19L33.8 19.7L34 20.4L34.1 21L34.1 21.6L34.3 22.3L33.6 22.3L33 22.3L31.8 22.2L31.1 22.2L29.7 22.1L28.4 22L27.5 22L27.8 18.8L27.8 18ZM27.6 33.7L28.6 33.8L29.9 33.8L31 33.9L32.3 33.9L33.1 33.9L33.9 34L34.5 34L35.3 34L36.2 33.9L36.2 34.6L36.3 35.5L36.4 36.4L36.4 37.2L36.4 38.3L35.8 38.1L35.1 38L34.5 38.2L33.9 38.1L33.3 38.1L32.7 38L32.1 37.8L31.5 37.6L31 37.3L30.6 34.5L29.5 34.5L28.3 34.4L27.5 34.3L27.6 33.7ZM49.5 26.2L50 25.8L51.1 25.9L51.9 25.8L52.7 25.6L53.4 25.5L54.4 25.3L54.8 25.8L54.9 26.4L54.9 27.1L55.4 27.4L55.1 28L53.8 28.4L52.9 28.6L52.1 28.8L51 29L50 29.1L49.8 28L49.5 26.2ZM27.4 23.2L27.5 22.2L28.4 22L29.3 22.1L30.6 22.2L31.8 22.2L32.6 22.3L33.6 22.3L34.3 22.3L34.1 22.9L34.3 23.6L34.3 25.5L34.3 26.1L34.3 26.7L33.7 26.4L33.1 26.3L32.4 26.1L31.4 26L30.2 26L29.5 26L28.6 25.9L27.2 25.8L27.4 23.4ZM27.5 34.3L28.3 34.4L29 34.4L30.2 34.5L30.5 37.1L31.1 37.3L31.7 37.6L32.3 37.7L32.8 38L33.4 38L34 38L34.7 38.1L35.3 38L35.9 38.1L36.4 38.3L36.9 39.1L36.9 40.5L37.2 41L37.5 41.6L37.3 42.3L37.3 43L37 43.5L36.3 43.8L35.8 44.2L35.1 44.7L34.5 45L33.9 45.5L33.5 46L33.2 46.6L33.2 47.2L33.4 47.9L33.1 47.2L33.2 46.5L33.5 45.9L33.9 45.4L33.4 45.9L33.1 46.5L33.1 47.2L33.2 47.9L32.7 48.2L32.1 48.1L31.5 47.8L31.1 47.4L30.8 46.9L30.7 46.3L30.3 45.9L29.9 45.3L29.7 44.8L29.5 44.1L29 43.7L28.6 43.2L28 43.1L27.4 43.1L27 43.6L26.6 44.1L26 43.8L25.5 43.4L25.1 42.9L25 42.2L24.7 41.7L24.2 41.3L23.8 40.8L23.4 40.3L24.5 40L25.4 40.1L26.3 40.1L27 40.2L27.1 38.8L27.2 37.9L27.4 36L27.5 34.6ZM27.4 23.2L27.2 25.4L27 28.4L26.2 28.3L25.3 28.2L24.6 28.2L23.5 28L22.1 27.9L21.2 27.7L20.5 27.6L20.3 26.8L20.5 25.5L20.8 24.1L20.9 23.5L21 22.9L21.6 22.5L22.8 22.7L23.6 22.8L24.6 22.9L25.7 23L27 23.2ZM56.1 24.8L56.7 24.7L57.7 24.5L57.9 25.2L57.4 25.6L56.8 25.8L56.3 26.2L56.2 25.3ZM35 29.3L36.1 29.3L37.1 29.2L38 29.2L38.9 29.1L39.2 29.7L39.3 30.3L39.9 30.8L40.2 31.4L40.5 31.9L40.8 32.4L41.3 32.8L41.4 33.4L41.8 33.9L41.5 34.4L41.3 35L40.6 35.1L40.9 34.6L39.5 34.5L38.3 34.5L37 34.6L36.2 34.6L36.2 33.9L36.2 32.6L36.2 31.8L36.1 31.2L35.7 30.7L35.5 30.1L35.1 29.6ZM48.2 31.1L48.5 30.6L48.9 30.1L49.3 29.7L49.7 29.2L49.7 28.6L49.8 28L50 29.1L51 29L51.1 29.6L51.6 29.2L52.1 28.9L52.7 29L52.1 29.4L51.9 29.9L51.6 30.5L51 30.9L50.7 31.5L50.5 32.1L49.9 32.4L49.3 32.5L48.8 32.2L48.4 31.7ZM39.2 29.4L39.5 28.8L39.5 28.2L40.1 27.9L40.3 27.3L40 26.8L40.8 26.6L41.6 26.5L42.3 26.5L42.7 26.9L42.9 27.7L43 29.1L43.1 29.7L43.2 30.5L43.2 31.1L43 31.8L42.8 32.4L42.6 33L42.2 33.5L41.5 33.7L41.4 33L40.9 32.6L40.4 32.1L40.6 31.5L40 31.1L39.7 30.6L39.3 30.1L39.2 29.4ZM21.4 33L22.2 33.1L23.1 33.3L24.3 33.4L25.4 33.5L26.2 33.6L26.8 33.6L27.6 33.7L27.5 34.3L27.4 35.5L27.2 37.7L27.2 38.4L27 40.2L26.3 40.1L25.4 40.1L24.5 40L23.2 39.8L22.4 40L21.4 39.9L20.4 40.4L20.8 37.2L21 36.3L21.1 35.2L21.4 33ZM36.2 34.6L37 34.6L37.8 34.6L39.5 34.5L40.8 34.4L40.6 35.1L41.3 35L41.1 35.6L40.9 36.2L40.6 36.8L40.3 37.3L40 37.9L39.9 38.5L39.1 39.1L37.9 39.1L36.9 39.1L36.9 38.5L36.4 37.6L36.4 37L36.4 36L36.3 35.1ZM8.2 23.4L8.9 23.7L9.6 23.9L10.2 24L11.1 24.3L11.7 24.5L11.6 26.1L11.4 27L11.2 27.9L11.4 28.9L11.9 29.6L12.5 30.5L13.1 31.3L13.9 32.7L14.6 33.7L15.3 34.7L15.4 35.3L15.2 35.9L15 36.5L14.7 37.1L13 37.4L12 37.3L12 36.6L11.7 36L11.3 35.5L10.9 35L10.4 34.8L10 34.3L9.4 34L9 33.5L8.9 32.9L8.8 32.3L8.5 31.7L8.3 31L8.5 30.4L8.1 29.9L8.2 29.2L8.5 29.7L8.4 29.1L7.9 28.8L7.8 28.1L7.5 27.5L7.5 26.8L7.7 26.2L7.4 25.6L7.7 24.9L8.1 24.2L8.1 23.5ZM34.3 25.5L35 25.5L36.1 25.4L36.7 25.4L37.4 25.4L38.6 25.4L39.2 25.3L39.3 25.9L39.7 26.4L40.1 27L40.2 27.6L39.7 28L39.7 28.7L39.2 29.2L38.6 29.2L37.4 29.2L36.7 29.3L35.6 29.3L35 29.2L34.9 28.5L34.6 27.9L34.5 27.3L34.3 26.7L34.3 26ZM41.8 33.7L42.4 33.6L42.8 33L43 32.4L43.6 32.4L44.2 32.3L44.8 32.1L45.2 31.5L45.7 31.1L45.9 30.5L46.5 30.8L47.1 31L47.7 30.9L48.2 31.2L48.5 31.8L49 32.2L48.5 32.7L48.2 33.2L47.7 33.5L46.8 33.7L46.1 33.8L45.2 33.9L44.5 33.9L43.9 34L43.1 34.1L42.5 34.3L41.7 34.4L41.8 33.7ZM51 29L52.1 28.8L52.9 28.6L53.8 28.4L54.6 28.3L55 29.8L55.7 29.7L55.2 30.5L54.7 30L54.3 29.6L54.3 29L54.1 29.5L54.4 30.1L53.7 30.2L53.6 29.5L53 29.2L52.5 28.8L51.9 29.1L51.3 29.4ZM43.6 27.3L43.9 26.6L44 26L43.8 25.2L43.7 24.6L43.7 24L43.8 23.4L44.2 22.9L44.6 22.5L44.9 21.9L45.5 22.1L46.1 22.3L46.4 22.9L46.4 23.6L46 24.1L46.6 24L47.3 24.5L47.4 25.1L47.5 25.7L47 26.2L46.9 26.8L45.9 27.1L45.2 27.1L44.5 27.2L43.9 27.3ZM39.8 21.3L40.3 21L40.9 20.7L41.3 20.3L41.8 20L41.5 20.5L42.1 20.8L42.6 21.2L43.2 21.2L43.8 20.8L44.4 20.7L44.9 21L45.4 21.3L46 21.5L45.3 21.6L44.6 21.6L44 21.8L43.5 22L42.8 22.1L42.6 22.7L42.1 22.2L41.6 22L41 21.8L40 21.6ZM40 39L40 38.4L40.1 37.8L40.3 37.3L40.5 36.7L41.6 36.3L43 36.2L43.1 37.5L43 38.9L43 40L43.1 41.2L43.2 42L42.6 42.3L42.1 42.6L41.7 42.1L41 41.6L39.6 41.7L39.7 41.1L40 40.5L40.3 39.9L40 39.4ZM17.6 16.5L18.3 16.7L19 16.8L20.2 17L21.2 17.2L21.9 17.3L22.6 17.4L23.6 17.6L24.9 17.8L25.6 17.8L27 18L27.8 18L27.8 18.8L27.5 22L27.4 23.2L26.2 23.1L25.1 23L23.6 22.8L22.8 22.7L22.2 22.6L21.3 22.5L20.9 23.1L20.3 22.9L19.7 22.9L19.1 22.8L18.8 22.2L18.7 21.6L18.2 21.3L18.2 20.6L18.4 20L18 19.5L17.8 18.9L17.5 18.4L17.4 17.5L17.6 16.5ZM56.9 20.6L57.5 20.9L57.8 21.9L58 22.5L58.3 23.1L57.5 23.6L56.8 23.7L56.7 23L56.7 22.4L56.7 21.8L57 21.3L56.9 20.7ZM50.2 25.7L50.6 25.3L50.8 24.8L51 24.2L51.7 24L52.4 24L52.9 23.6L53.1 23L53.1 22.4L53.5 21.9L53.9 21.4L54.6 21.2L55.3 21L55.5 21.7L55.5 22.3L55.7 22.9L56 23.7L56.1 24.3L56.2 25.3L56.4 25.9L56.2 26.5L56.8 26.2L57.3 25.8L57.9 25.7L57.3 26.2L56.8 26.5L56.1 26.8L55.5 26.1L54.9 25.8L54.4 25.3L53.4 25.5L52.7 25.6L51.9 25.8L51.1 25.9L50.2 26.1ZM45.5 27.2L46.5 27L47.1 27.1L47.8 27.3L48.4 27.1L48.8 26.6L49.5 26.3L49.8 28L49.7 28.6L49.6 29.2L49.3 29.7L48.9 30.1L48.5 30.6L48.3 31.2L47.8 30.8L47.1 30.9L46.5 30.9L46 30.5L45.8 30L45.7 29L45.5 27.4ZM10.3 18.3L10.8 18.7L10.9 19.3L11.6 19.5L12.2 19.6L12.8 19.7L13.5 19.7L14.1 19.8L14.7 19.8L15.5 20L16.1 20.3L16.2 20.9L15.8 21.4L15.4 22L15.4 22.6L14.8 25.2L13.3 24.9L12 24.5L11.1 24.3L10.2 24L9.6 23.9L8.9 23.7L8.2 23.4L8.1 22.8L8.2 22.2L8.6 21.7L8.9 21.1L9.2 20.4L9.5 19.7L9.7 19.1L9.9 18.6ZM41.3 35L41.5 34.4L42.5 34.3L43.1 34L43.9 34L44.5 33.9L45.2 33.9L46.1 33.8L46.8 33.7L47.4 33.7L48.4 33.5L49.2 33.4L49.2 34L48.6 34.3L48.1 34.7L47.5 35L47.1 35.5L46.3 35.9L45.7 36L44.9 36.1L43.8 36.2L43 36.2L42.2 36.3L40.8 36.4L40.9 35.8L41.3 35.3ZM17.6 25.8L18.7 26L19.3 26.1L20 26.2L20.3 26.8L20.2 27.6L21 27.7L21.7 27.8L22.1 28.4L21.8 30.6L21.6 31.4L21.5 32.4L21.4 33L20 32.8L19.4 32.7L17.9 32.5L17.1 32.3L16.4 32.2L16.5 31.2L16.7 30.4L17.1 28.2L17.3 27.4L17.6 25.8ZM49 32.2L49.5 32.6L50.1 32.3L50.7 32L50.8 31.4L51.1 30.7L51.6 30.4L51.9 29.9L52.2 29.3L52.8 29.2L53.4 29.5L53.4 30.2L54 30.5L54.7 30.7L54 30.8L54.6 31.1L54.8 31.7L54.2 31.7L54.7 32L55.3 32.2L54.4 32.6L53 32.8L51.7 33.1L51.1 33.2L50.5 33.3L49.8 33.4L48.7 33.5L47.9 33.6L48.2 33.1L48.7 32.6ZM16.8 16.3L16.6 17.1L16.4 18.2L16.1 19.6L15.5 20L14.7 19.8L14.1 19.8L13.5 19.7L12.8 19.8L12.2 19.7L11.6 19.4L10.9 19.3L10.8 18.7L10.3 18.3L10 17.7L10.1 17.1L10.2 16.4L10.1 15.8L10.7 15.8L11.3 16.1L11.7 16.5L11.2 16.9L11.8 16.6L11.6 17.2L12 16.6L12.1 16L12 15.4L12.8 15.4L13.7 15.6L14.8 15.9L15.8 16.1L16.8 16.3ZM38.3 21.2L38.9 21L39.6 21.3L41 21.8L41.6 22L42.1 22.2L42.3 22.9L42.2 23.5L42.7 23.2L42.6 24L42.4 24.6L42.4 25.3L42.5 25.9L41.7 26.5L40.9 26.5L40 26.6L39.4 26.3L39.3 25.7L39.2 25.1L38.7 24.6L38.2 24.2L37.7 23.8L37.7 23.2L37.6 22.5L38.1 22.1L38.1 21.3ZM27.2 25.8L28.2 25.9L29.2 25.9L30.2 26L30.9 26L32 26.1L32.6 26.2L33.2 26.3L33.8 26.4L34.3 26.8L34.5 27.3L34.7 28L34.9 28.6L35 29.2L35.3 29.8L34.5 30L33.5 30L32.5 30L31 30L30.1 29.9L28.8 29.8L28.9 28.5L27.9 28.5L27 28.4L27.2 25.8ZM48.3 35.7L48.8 35.4L49.8 35.2L50.4 35.1L51.4 35.4L52.3 35.6L52.9 36.1L53 36.7L52.8 37.3L52.4 37.8L51.9 38.3L51.5 38.8L51 39.1L50.7 38.5L50.4 38L49.8 37.6L49.4 37.1L48.9 36.7L48.4 36.3L48.3 35.7ZM16 20.1L16.4 18.3L16.5 17.4L16.7 16.7L17.3 16.5L17.4 17.4L17.4 18L17.6 18.7L17.9 19.3L18.3 19.8L18.3 20.4L18.1 21L18.7 21.2L18.8 21.9L19.1 22.4L19.3 23L19.9 22.8L20.6 22.9L20.9 23.5L20.8 24.1L20.6 25.3L20.4 26.3L19.4 26.1L18.7 26L17.8 25.8L17.2 25.7L16.4 25.5L15.4 25.3L14.8 25.2L15.3 22.9L15.4 22.3L15.6 21.7L16 21.1L16.3 20.6ZM12 24.5L12.8 24.7L14.2 25.1L15.4 25.3L16.4 25.5L17.1 25.7L17.4 27.1L17.2 28L16.8 30L16.6 30.7L16.4 32.2L16.2 33L15.6 33.2L15.4 33.8L15.4 34.4L14.8 34L13.9 32.7L13.1 31.3L12.7 30.8L12.2 30L11.7 29.4L11.1 28.4L11.3 27.4L11.6 26.1L12 24.5ZM55.3 21L55.9 20.9L56.9 20.6L57 21.2L56.7 21.8L56.7 22.4L56.7 23L56.8 23.7L56.1 23.9L55.9 23.2L55.7 22.6L55.6 22L55.4 21.4ZM36.9 39.1L37.6 39.1L38.5 39.1L40 39L40.2 39.7L40.1 40.3L39.8 40.9L39.6 41.5L40.5 41.6L41.7 41.6L41.7 42.2L41.8 42.8L42.2 43.3L42.6 43.8L41.7 43.8L41.1 43.8L40.6 44.2L40 43.9L39.7 43.3L39 43.3L38.4 43.5L37.8 43.3L37.2 43.5L37.3 42.9L37.4 42.2L37.5 41.5L37.1 41L36.9 39.1Z" fill="#3b82f6"/>
</svg>
